<?xml version="1.0"?>
<svg xmlns="http://www.w3.org/2000/svg" id="icons" enable-background="new 0 0 64 64" height="512px" viewBox="0 0 64 64" width="512px"><path d="m55.339 42.61c-.002-.002-.002-.004-.004-.006s-.004-.002-.006-.004l-2.82-2.82c-.001-.001-.001-.002-.002-.003s-.002-.001-.003-.002l-10.605-10.604 16.989-16.989c.014-.014.021-.034.034-.05.052-.059.094-.124.132-.195.016-.028.039-.051.051-.081.005-.012.006-.023.01-.035s.013-.021.017-.032l2.801-8.457c.013-.037.006-.075.014-.112.015-.067.024-.133.024-.202s-.01-.135-.024-.202c-.008-.037-.001-.075-.014-.112-.008-.023-.026-.039-.035-.062-.026-.064-.062-.119-.101-.177-.036-.053-.069-.104-.114-.147-.043-.043-.092-.076-.144-.111-.058-.039-.114-.075-.179-.102-.022-.01-.039-.028-.063-.036-.037-.013-.074-.006-.112-.014-.067-.015-.132-.025-.203-.025-.068 0-.132.01-.198.023-.038.008-.077.001-.115.014l-8.457 2.8c-.008.003-.014.01-.021.012-.184.061-.338.17-.457.316l-16.906 16.905-16.261-16.261c-.001-.001-.001-.002-.002-.003s-.002-.001-.003-.002l-5.541-5.541c-.391-.391-1.023-.391-1.414 0l-11.314 11.314c-.391.391-.391 1.023 0 1.414l21.807 21.807-8.488 8.489c-.001.001-.002.001-.003.002s-.001.002-.002.003l-2.824 2.824c-.001.001-.002.001-.003.002s-.001.002-.002.003l-8.189 8.189c-.002.002-.002.004-.004.005-.775.78-.775 2.046.004 2.824l4.242 4.242c.39.39.902.585 1.414.585s1.024-.195 1.414-.585l19.513-19.513 21.808 21.808c.194.196.45.294.706.294s.512-.098.707-.293l11.314-11.314c.391-.391.391-1.023 0-1.414zm-35.366 5.66-4.242-4.242 19.803-19.804c.001-.001.002-.001.003-.002s.001-.002.002-.003l15.96-15.96v3.215c0 .553.447 1 1 1h3.271zm36.509-42.71 1.957 1.957-.979 2.957h-3.963v-3.926zm2.662-.168-.536-.535.801-.265zm-56.73 6.922 9.9-9.9 1.301 1.301-.707.707c-.391.391-.391 1.023 0 1.414.195.195.451.293.707.293s.512-.098.707-.293l.707-.707 1.414 1.414-2.122 2.123c-.391.391-.391 1.023 0 1.414.195.195.451.293.707.293s.512-.098.707-.293l2.122-2.123 1.416 1.416-.708.707c-.391.391-.391 1.023 0 1.414.195.195.451.293.707.293s.512-.098.707-.293l.708-.707 1.414 1.414-2.123 2.123c-.391.391-.391 1.023 0 1.414.195.195.451.293.707.293s.512-.098.707-.293l2.123-2.123 1.414 1.414-.707.707c-.391.391-.391 1.023 0 1.414.195.195.451.293.707.293s.512-.098.707-.293l.707-.707 1.414 1.414-2.123 2.123c-.391.391-.391 1.023 0 1.414.195.195.451.293.707.293s.512-.098.707-.293l2.123-2.123 1.414 1.414-.707.707c-.391.391-.391 1.023 0 1.414.195.195.451.293.707.293s.512-.098.707-.293l.708-.706 1.414 1.414-9.9 9.9zm5.83 47.684-4.242-4.242c.001-.001.001-.002.002-.003l4.653-4.653 4.242 4.243zm6.069-6.069-4.242-4.243 1.416-1.416c.195.195.45.293.706.293s.512-.098.707-.293c.391-.391.391-1.022 0-1.413l1.416-1.415 4.242 4.242-1.415 1.415c-.391-.391-1.023-.391-1.414 0s-.391 1.023 0 1.414zm37.373 7.657-21.101-21.101 9.9-9.9 1.415 1.415-.708.707c-.391.39-.391 1.023 0 1.414.195.195.451.293.707.293s.512-.098.707-.293l.708-.707 1.414 1.414-2.123 2.123c-.391.391-.391 1.023 0 1.414.195.195.451.293.707.293s.512-.098.707-.293l2.123-2.123 1.414 1.414-.707.707c-.391.391-.391 1.023 0 1.414.195.195.451.293.707.293s.512-.098.707-.293l.707-.707 1.414 1.414-2.122 2.123c-.391.391-.391 1.023 0 1.414.195.195.451.293.707.293s.512-.098.707-.293l2.122-2.123 1.414 1.414-.707.709c-.39.392-.39 1.024.001 1.415.195.194.451.292.707.292s.513-.098.708-.293l.707-.707 1.413 1.413-2.123 2.122c-.391.39-.391 1.023 0 1.414.195.195.451.293.707.293s.512-.098.707-.293l2.123-2.122 1.415 1.415-.708.707c-.391.391-.391 1.023 0 1.414.195.195.451.293.707.293s.512-.098.707-.293l.708-.707 1.301 1.301z" fill="#FF4F4F"/></svg>
