<?xml version="1.0"?>
<svg xmlns="http://www.w3.org/2000/svg" id="Layer_3" height="512px" viewBox="0 0 64 64" width="512px" data-name="Layer 3"><path d="m62 12h-16.879l-1.621-.406a11.919 11.919 0 0 0 -.96-2.314l.927-1.544a1 1 0 0 0 -.151-1.221l-2.831-2.828a1 1 0 0 0 -1.221-.151l-1.544.927a11.919 11.919 0 0 0 -2.314-.96l-.436-1.745a1 1 0 0 0 -.97-.758h-4a1 1 0 0 0 -.97.758l-.436 1.742a11.919 11.919 0 0 0 -2.314.96l-1.544-.927a1 1 0 0 0 -1.221.151l-2.828 2.831a1 1 0 0 0 -.151 1.221l.927 1.544a11.919 11.919 0 0 0 -.96 2.314l-1.624.406h-16.879a1 1 0 0 0 -1 1v37a1 1 0 0 0 1 1h21.613l-1.333 4h-1.28a4 4 0 0 0 -4 4v3a1 1 0 0 0 1 1h28a1 1 0 0 0 1-1v-3a4 4 0 0 0 -4-4h-1.28l-1.333-4h21.613a1 1 0 0 0 1-1v-37a1 1 0 0 0 -1-1zm-43.121 6 1.624.406a11.919 11.919 0 0 0 .96 2.314l-.927 1.544a1 1 0 0 0 .151 1.221l2.828 2.828a1 1 0 0 0 1.221.151l1.544-.927a11.864 11.864 0 0 0 2.314.959l.436 1.746a1 1 0 0 0 .97.758h4a1 1 0 0 0 .97-.758l.436-1.746a11.864 11.864 0 0 0 2.314-.959l1.544.927a1 1 0 0 0 1.221-.151l2.828-2.828a1 1 0 0 0 .151-1.221l-.927-1.544a11.919 11.919 0 0 0 .96-2.314l1.624-.406h11.879v27h-50v-27zm1.121-4.219 1.559-.39a1 1 0 0 0 .73-.737 9.927 9.927 0 0 1 1.187-2.862 1 1 0 0 0 0-1.036l-.828-1.379 1.725-1.725 1.379.828a1 1 0 0 0 1.036 0 9.927 9.927 0 0 1 2.862-1.187 1 1 0 0 0 .737-.73l.394-1.563h2.438l.39 1.559a1 1 0 0 0 .737.73 9.927 9.927 0 0 1 2.862 1.187 1 1 0 0 0 1.036 0l1.379-.828 1.725 1.725-.828 1.383a1 1 0 0 0 0 1.036 9.927 9.927 0 0 1 1.187 2.862 1 1 0 0 0 .73.737l1.559.39v2.438l-1.559.39a1 1 0 0 0 -.73.737 9.927 9.927 0 0 1 -1.187 2.862 1 1 0 0 0 0 1.036l.828 1.379-1.725 1.725-1.379-.828a1 1 0 0 0 -1.036 0 9.974 9.974 0 0 1 -2.863 1.188 1 1 0 0 0 -.736.729l-.39 1.563h-2.438l-.39-1.559a1 1 0 0 0 -.736-.729 9.974 9.974 0 0 1 -2.863-1.188 1 1 0 0 0 -1.036 0l-1.379.828-1.725-1.725.828-1.379a1 1 0 0 0 0-1.036 9.927 9.927 0 0 1 -1.187-2.862 1 1 0 0 0 -.73-.737l-1.563-.394zm25 45.219v2h-26v-2a2 2 0 0 1 2-2h22a2 2 0 0 1 2 2zm-5.387-4h-15.226l1.333-4h12.56zm21.387-6h-58v-35h15v2h-12a1 1 0 0 0 -1 1v29a1 1 0 0 0 1 1h52a1 1 0 0 0 1-1v-29a1 1 0 0 0 -1-1h-12v-2h15z" fill="#FF4F4F"/><path d="m32 23a8 8 0 1 0 -8-8 8.009 8.009 0 0 0 8 8zm0-14a6 6 0 1 1 -6 6 6.006 6.006 0 0 1 6-6z" fill="#FF4F4F"/><path d="m25.293 42.707 1.414-1.414-4.293-4.293 4.293-4.293-1.414-1.414-5 5a1 1 0 0 0 0 1.414z" fill="#FF4F4F"/><path d="m38.707 42.707 5-5a1 1 0 0 0 0-1.414l-5-5-1.414 1.414 4.293 4.293-4.293 4.293z" fill="#FF4F4F"/><path d="m26.169 36h11.662v2h-11.662z" transform="matrix(.515 -.857 .857 .515 -16.193 45.395)" fill="#FF4F4F"/><path d="m46 5h2v2h-2z" fill="#FF4F4F"/><path d="m50 5h2v2h-2z" fill="#FF4F4F"/><path d="m54 5h2v2h-2z" fill="#FF4F4F"/><path d="m8 5h2v2h-2z" fill="#FF4F4F"/><path d="m12 5h2v2h-2z" fill="#FF4F4F"/><path d="m16 5h2v2h-2z" fill="#FF4F4F"/></svg>
